# xmcd
#
# Track frame offsets:
#	150
#	24232
#	41190
#	62056
#	87678
#	112453
#	136991
#	154920
#	173837
#	190903
#	210109
#	233630
#	250358
#	273761
#	300626
#	317895
#	333700
#
# Disc length: 4706 seconds
# Revision: 0
# Processed by: cddbd v1.5.2PL0 Copyright (c) Steve Scherf et al.
# Submitted via: dBpowerAMP V12.0
#
DISCID=f6126011
DTITLE=Eugene Wilde - The Greatest Hits [Empire]
DYEAR=2004
DGENRE=R&B
TTITLE0=Gotta Get You Home Tonight
TTITLE1=Rainbow
TTITLE2=Just Be Good To Me
TTITLE3=Lately
TTITLE4=Let Her Feel It
TTITLE5=Gold
TTITLE6=Good And Plenty
TTITLE7=First Love Never Dies
TTITLE8=Diana
TTITLE9=Don't Say No (Tonight)
TTITLE10=Are You Coming Over?
TTITLE11=I Want You
TTITLE12=Here I Go Again
TTITLE13=I Never Thought
TTITLE14=Thirty Minutes To Talk
TTITLE15=Chey Chey Kule
TTITLE16=Personality
EXTD=
EXTT0=
EXTT1=
EXTT2=
EXTT3=
EXTT4=
EXTT5=
EXTT6=
EXTT7=
EXTT8=
EXTT9=
EXTT10=
EXTT11=
EXTT12=
EXTT13=
EXTT14=
EXTT15=
EXTT16=
PLAYORDER=
